<svg class="diagram-root" style="background: #f5f6f6" xmlns="http://www.w3.org/2000/svg" xmlns:xlink="http://www.w3.org/1999/xlink"><style>.diagram-root { font-family: "Helvetica Neue", sans-serif; font-size: 12px; } .t { overflow: visible; } .t-bg { y: 40; fill: #fff;   } .th { fill: #005aa0;   } .tht { fill: #fff; font-size: 14px;  } .tf { fill: #323c46; overflow: visible; } .tf.pk { fill: #005aa0; font-weight: bold; } .tf.fk { font-weight: bold; } .ty { fill: #adb1b5; font-weight: normal; text-anchor: end; } .r { fill: transparent; stroke: #c3c3c3; stroke-width: 1; } .l { stroke: 1; } .i { fill: #c2c7ce; stroke: #c2c7ce; } .i.ix { fill: #afb3b6; stroke: #000; } .fa { fill: transparent; overflow: visible; } .fa .bg.hover { fill: #f7f7f7; } .c { cy: 12; r: 4; stroke: #d2d2dc; fill: #d2d2dc; } .hr { fill: transparent; stroke: #323c46; stroke-opacity: 0.035; stroke-width: 13; } .dc { stroke: #fa5a3c; fill: #fa5a3c; } .x { stroke: white; stroke-width: 1; } .hl .th { fill: #1b9bff; } .hl .tht {  } .fhl .bg { fill: #e7f4ff; } .fhls .bg {  } .r.hl { stroke: #1b9bff; } .dim { opacity: 0.25; }</style><g class="drawing-wrapper" transform="translate(-56, -1) scale(1,1)"><g class="rs"><path d="M 226 88 m -1, 0 a 1,1 0 1,0 2,0 a 1,1 0 1,0 -2,0 M 226 88 m -0.5, 0 a 0.5,0.5 0 1,0 1,0 a 0.5,0.5 0 1,0 -1,0  M226 88 L226 88 238 88 M 226 94 m -1, 0 a 1,1 0 1,0 2,0 a 1,1 0 1,0 -2,0 M 226 94 m -0.5, 0 a 0.5,0.5 0 1,0 1,0 a 0.5,0.5 0 1,0 -1,0  M226 94 L226 94 233 88 226 82 M 226 82 m -1, 0 a 1,1 0 1,0 2,0 a 1,1 0 1,0 -2,0 M 226 82 m -0.5, 0 a 0.5,0.5 0 1,0 1,0 a 0.5,0.5 0 1,0 -1,0  M238 88 Q 261.5 88, 285 88 T 332 88 M 344 88 m -1, 0 a 1,1 0 1,0 2,0 a 1,1 0 1,0 -2,0 M 344 88 m -0.5, 0 a 0.5,0.5 0 1,0 1,0 a 0.5,0.5 0 1,0 -1,0  M344 88 L344 88 332 88 M338 94 L338 94 338 82" id="h1139284389" class="r"></path><path d="M 81 113 m -1, 0 a 1,1 0 1,0 2,0 a 1,1 0 1,0 -2,0 M 81 113 m -0.5, 0 a 0.5,0.5 0 1,0 1,0 a 0.5,0.5 0 1,0 -1,0  M81 113 L81 113 69 113 M 81 119 m -1, 0 a 1,1 0 1,0 2,0 a 1,1 0 1,0 -2,0 M 81 119 m -0.5, 0 a 0.5,0.5 0 1,0 1,0 a 0.5,0.5 0 1,0 -1,0  M81 119 L81 119 74 113 81 107 M 81 107 m -1, 0 a 1,1 0 1,0 2,0 a 1,1 0 1,0 -2,0 M 81 107 m -0.5, 0 a 0.5,0.5 0 1,0 1,0 a 0.5,0.5 0 1,0 -1,0  M69 113 C 14.2 113, 16 338, 66 338 M 78 338 m -1, 0 a 1,1 0 1,0 2,0 a 1,1 0 1,0 -2,0 M 78 338 m -0.5, 0 a 0.5,0.5 0 1,0 1,0 a 0.5,0.5 0 1,0 -1,0  M78 338 L78 338 66 338 M72 344 L72 344 72 332" id="h1607168654" class="r"></path><path d="M 525 313 m -1, 0 a 1,1 0 1,0 2,0 a 1,1 0 1,0 -2,0 M 525 313 m -0.5, 0 a 0.5,0.5 0 1,0 1,0 a 0.5,0.5 0 1,0 -1,0  M525 313 L525 313 537 313 M 525 319 m -1, 0 a 1,1 0 1,0 2,0 a 1,1 0 1,0 -2,0 M 525 319 m -0.5, 0 a 0.5,0.5 0 1,0 1,0 a 0.5,0.5 0 1,0 -1,0  M525 319 L525 319 532 313 525 307 M 525 307 m -1, 0 a 1,1 0 1,0 2,0 a 1,1 0 1,0 -2,0 M 525 307 m -0.5, 0 a 0.5,0.5 0 1,0 1,0 a 0.5,0.5 0 1,0 -1,0  M537 313 C 590.2 313, 589 88, 539 88 M 527 88 m -1, 0 a 1,1 0 1,0 2,0 a 1,1 0 1,0 -2,0 M 527 88 m -0.5, 0 a 0.5,0.5 0 1,0 1,0 a 0.5,0.5 0 1,0 -1,0  M527 88 L527 88 539 88 M533 94 L533 94 533 82" id="h2286254435" class="r"></path><path d="M 380 338 m -1, 0 a 1,1 0 1,0 2,0 a 1,1 0 1,0 -2,0 M 380 338 m -0.5, 0 a 0.5,0.5 0 1,0 1,0 a 0.5,0.5 0 1,0 -1,0  M380 338 L380 338 368 338 M 380 344 m -1, 0 a 1,1 0 1,0 2,0 a 1,1 0 1,0 -2,0 M 380 344 m -0.5, 0 a 0.5,0.5 0 1,0 1,0 a 0.5,0.5 0 1,0 -1,0  M380 344 L380 344 373 338 380 332 M 380 332 m -1, 0 a 1,1 0 1,0 2,0 a 1,1 0 1,0 -2,0 M 380 332 m -0.5, 0 a 0.5,0.5 0 1,0 1,0 a 0.5,0.5 0 1,0 -1,0  M368 338 Q 345.25 338, 322.5 338 T 277 338 M 265 338 m -1, 0 a 1,1 0 1,0 2,0 a 1,1 0 1,0 -2,0 M 265 338 m -0.5, 0 a 0.5,0.5 0 1,0 1,0 a 0.5,0.5 0 1,0 -1,0  M265 338 L265 338 277 338 M271 344 L271 344 271 332" id="h1397587031" class="r"></path></g><g class="hrs"></g><g class="ts"><svg width="183" height="200" x="344" y="31" id="h1639608377" class="t"><rect height="40" width="183" class="th"></rect><text x="13" y="25" class="tht">employees</text><rect height="160" width="183" class="t-bg" y="40"></rect><text x="13" y="61" class="tf pk">emp_no<tspan x="170" class="ty">INTEGER</tspan></text><path d="M7,14A2,2 0 0,1 5,12A2,2 0 0,1 7,10A2,2 0 0,1 9,12A2,2 0 0,1 7,14M12.65,10C11.83,7.67 9.61,6 7, 6A6, 6 0 0, 0 1, 12A6, 6 0 0, 0 7, 18C9.61, 18 11.83, 16.33 12.65, 14H17V18H21V14H23V10H12.65Z" class="i pk" transform="translate(97, 48) scale(0.65)"></path><text x="13" y="86" class="tf">birth_date<tspan x="170" class="ty">DATE</tspan></text><text x="13" y="111" class="tf">first_name<tspan x="170" class="ty">VARCHAR(30)</tspan></text><text x="13" y="136" class="tf">last_name<tspan x="170" class="ty">VARCHAR(30)</tspan></text><text x="13" y="161" class="tf">gender<tspan x="170" class="ty">VARCHAR(1)</tspan></text><text x="13" y="186" class="tf">hire_date<tspan x="170" class="ty">DATE</tspan></text></svg><svg width="145" height="150" x="380" y="256" id="h1676682957" class="t"><rect height="40" width="145" class="th"></rect><text x="13" y="25" class="tht">dept_manager</text><rect height="110" width="145" class="t-bg" y="40"></rect><text x="13" y="61" class="tf fk">emp_no<tspan x="132" class="ty">INTEGER</tspan></text><text x="13" y="86" class="tf fk">dept_no<tspan x="132" class="ty">INTEGER</tspan></text><text x="13" y="111" class="tf">from_date<tspan x="132" class="ty">DATE</tspan></text><text x="13" y="136" class="tf">to_date<tspan x="132" class="ty">DATE</tspan></text></svg><svg width="145" height="150" x="81" y="31" id="h1090417462" class="t"><rect height="40" width="145" class="th"></rect><text x="13" y="25" class="tht">dept_emp</text><rect height="110" width="145" class="t-bg" y="40"></rect><text x="13" y="61" class="tf fk">emp_no<tspan x="132" class="ty">INTEGER</tspan></text><text x="13" y="86" class="tf fk">dept_no<tspan x="132" class="ty">INTEGER</tspan></text><text x="13" y="111" class="tf">from_date<tspan x="132" class="ty">DATE</tspan></text><text x="13" y="136" class="tf">to_date<tspan x="132" class="ty">DATE</tspan></text></svg><svg width="187" height="100" x="78" y="281" id="h475896179" class="t"><rect height="40" width="187" class="th"></rect><text x="13" y="25" class="tht">departments</text><rect height="60" width="187" class="t-bg" y="40"></rect><text x="13" y="61" class="tf pk">dept_no<tspan x="174" class="ty">VARCHAR(4)</tspan></text><path d="M7,14A2,2 0 0,1 5,12A2,2 0 0,1 7,10A2,2 0 0,1 9,12A2,2 0 0,1 7,14M12.65,10C11.83,7.67 9.61,6 7, 6A6, 6 0 0, 0 1, 12A6, 6 0 0, 0 7, 18C9.61, 18 11.83, 16.33 12.65, 14H17V18H21V14H23V10H12.65Z" class="i pk" transform="translate(83, 48) scale(0.65)"></path><text x="13" y="86" class="tf">dept_name<tspan x="174" class="ty">VARCHAR(30)</tspan></text></svg></g></g><text class="qdbd-link" x="10" y="20">www.quickdatabasediagrams.com</text></svg>