<svg class="diagram-root" style="background: #f5f6f6" xmlns="http://www.w3.org/2000/svg" xmlns:xlink="http://www.w3.org/1999/xlink"><style>.diagram-root { font-family: "Helvetica Neue", sans-serif; font-size: 12px; } .t { overflow: visible; } .t-bg { y: 40; fill: #fff;   } .th { fill: #005aa0;   } .tht { fill: #fff; font-size: 14px;  } .tf { fill: #323c46; overflow: visible; } .tf.pk { fill: #005aa0; font-weight: bold; } .tf.fk { font-weight: bold; } .ty { fill: #adb1b5; font-weight: normal; text-anchor: end; } .r { fill: transparent; stroke: #c3c3c3; stroke-width: 1; } .l { stroke: 1; } .i { fill: #c2c7ce; stroke: #c2c7ce; } .i.ix { fill: #afb3b6; stroke: #000; } .fa { fill: transparent; overflow: visible; } .fa .bg.hover { fill: #f7f7f7; } .c { cy: 12; r: 4; stroke: #d2d2dc; fill: #d2d2dc; } .hr { fill: transparent; stroke: #323c46; stroke-opacity: 0.035; stroke-width: 13; } .dc { stroke: #fa5a3c; fill: #fa5a3c; } .x { stroke: white; stroke-width: 1; } .hl .th { fill: #1b9bff; } .hl .tht {  } .fhl .bg { fill: #e7f4ff; } .fhls .bg {  } .r.hl { stroke: #1b9bff; } .dim { opacity: 0.25; }</style><g class="drawing-wrapper" transform="translate(2, 27) scale(1,1)"><g class="rs"><path d="M 182 172 m -1, 0 a 1,1 0 1,0 2,0 a 1,1 0 1,0 -2,0 M 182 172 m -0.5, 0 a 0.5,0.5 0 1,0 1,0 a 0.5,0.5 0 1,0 -1,0  M182 172 L182 172 194 172 M 182 178 m -1, 0 a 1,1 0 1,0 2,0 a 1,1 0 1,0 -2,0 M 182 178 m -0.5, 0 a 0.5,0.5 0 1,0 1,0 a 0.5,0.5 0 1,0 -1,0  M182 178 L182 178 189 172 182 166 M 182 166 m -1, 0 a 1,1 0 1,0 2,0 a 1,1 0 1,0 -2,0 M 182 166 m -0.5, 0 a 0.5,0.5 0 1,0 1,0 a 0.5,0.5 0 1,0 -1,0  M194 172 Q 210.25 172, 226.5 172 T 259 172 M 271 172 m -1, 0 a 1,1 0 1,0 2,0 a 1,1 0 1,0 -2,0 M 271 172 m -0.5, 0 a 0.5,0.5 0 1,0 1,0 a 0.5,0.5 0 1,0 -1,0  M271 172 L271 172 259 172 M265 178 L265 178 265 166" id="h1139284389" class="r"></path><path d="M 20 197 m -1, 0 a 1,1 0 1,0 2,0 a 1,1 0 1,0 -2,0 M 20 197 m -0.5, 0 a 0.5,0.5 0 1,0 1,0 a 0.5,0.5 0 1,0 -1,0  M20 197 L20 197 8 197 M 20 203 m -1, 0 a 1,1 0 1,0 2,0 a 1,1 0 1,0 -2,0 M 20 203 m -0.5, 0 a 0.5,0.5 0 1,0 1,0 a 0.5,0.5 0 1,0 -1,0  M20 203 L20 203 13 197 20 191 M 20 191 m -1, 0 a 1,1 0 1,0 2,0 a 1,1 0 1,0 -2,0 M 20 191 m -0.5, 0 a 0.5,0.5 0 1,0 1,0 a 0.5,0.5 0 1,0 -1,0  M8 197 C -42 197, -74.4 437, 62 437 M 74 437 m -1, 0 a 1,1 0 1,0 2,0 a 1,1 0 1,0 -2,0 M 74 437 m -0.5, 0 a 0.5,0.5 0 1,0 1,0 a 0.5,0.5 0 1,0 -1,0  M74 437 L74 437 62 437 M68 443 L68 443 68 431" id="h1607168654" class="r"></path><path d="M 523 438 m -1, 0 a 1,1 0 1,0 2,0 a 1,1 0 1,0 -2,0 M 523 438 m -0.5, 0 a 0.5,0.5 0 1,0 1,0 a 0.5,0.5 0 1,0 -1,0  M523 438 L523 438 535 438 M 523 444 m -1, 0 a 1,1 0 1,0 2,0 a 1,1 0 1,0 -2,0 M 523 444 m -0.5, 0 a 0.5,0.5 0 1,0 1,0 a 0.5,0.5 0 1,0 -1,0  M523 444 L523 444 530 438 523 432 M 523 432 m -1, 0 a 1,1 0 1,0 2,0 a 1,1 0 1,0 -2,0 M 523 432 m -0.5, 0 a 0.5,0.5 0 1,0 1,0 a 0.5,0.5 0 1,0 -1,0  M535 438 C 585 438, 626.4 172, 466 172 M 454 172 m -1, 0 a 1,1 0 1,0 2,0 a 1,1 0 1,0 -2,0 M 454 172 m -0.5, 0 a 0.5,0.5 0 1,0 1,0 a 0.5,0.5 0 1,0 -1,0  M454 172 L454 172 466 172 M460 178 L460 178 460 166" id="h2286254435" class="r"></path><path d="M 361 463 m -1, 0 a 1,1 0 1,0 2,0 a 1,1 0 1,0 -2,0 M 361 463 m -0.5, 0 a 0.5,0.5 0 1,0 1,0 a 0.5,0.5 0 1,0 -1,0  M361 463 L361 463 349 463 M 361 469 m -1, 0 a 1,1 0 1,0 2,0 a 1,1 0 1,0 -2,0 M 361 469 m -0.5, 0 a 0.5,0.5 0 1,0 1,0 a 0.5,0.5 0 1,0 -1,0  M361 469 L361 469 354 463 361 457 M 361 457 m -1, 0 a 1,1 0 1,0 2,0 a 1,1 0 1,0 -2,0 M 361 457 m -0.5, 0 a 0.5,0.5 0 1,0 1,0 a 0.5,0.5 0 1,0 -1,0  M349 463 Q 330 463, 311 450 T 273 437 M 261 437 m -1, 0 a 1,1 0 1,0 2,0 a 1,1 0 1,0 -2,0 M 261 437 m -0.5, 0 a 0.5,0.5 0 1,0 1,0 a 0.5,0.5 0 1,0 -1,0  M261 437 L261 437 273 437 M267 443 L267 443 267 431" id="h1397587031" class="r"></path><path d="M 627 60 m -1, 0 a 1,1 0 1,0 2,0 a 1,1 0 1,0 -2,0 M 627 60 m -0.5, 0 a 0.5,0.5 0 1,0 1,0 a 0.5,0.5 0 1,0 -1,0  M627 60 L627 60 615 60 M 627 66 m -1, 0 a 1,1 0 1,0 2,0 a 1,1 0 1,0 -2,0 M 627 66 m -0.5, 0 a 0.5,0.5 0 1,0 1,0 a 0.5,0.5 0 1,0 -1,0  M627 66 L627 66 620 60 627 54 M 627 54 m -1, 0 a 1,1 0 1,0 2,0 a 1,1 0 1,0 -2,0 M 627 54 m -0.5, 0 a 0.5,0.5 0 1,0 1,0 a 0.5,0.5 0 1,0 -1,0  M615 60 Q 577.75 60, 540.5 116 T 466 172 M 454 172 m -1, 0 a 1,1 0 1,0 2,0 a 1,1 0 1,0 -2,0 M 454 172 m -0.5, 0 a 0.5,0.5 0 1,0 1,0 a 0.5,0.5 0 1,0 -1,0  M454 172 L454 172 466 172 M460 178 L460 178 460 166" id="h3177548053" class="r"></path><path d="M 626 223 m -1, 0 a 1,1 0 1,0 2,0 a 1,1 0 1,0 -2,0 M 626 223 m -0.5, 0 a 0.5,0.5 0 1,0 1,0 a 0.5,0.5 0 1,0 -1,0  M626 223 L626 223 614 223 M 626 229 m -1, 0 a 1,1 0 1,0 2,0 a 1,1 0 1,0 -2,0 M 626 229 m -0.5, 0 a 0.5,0.5 0 1,0 1,0 a 0.5,0.5 0 1,0 -1,0  M626 229 L626 229 619 223 626 217 M 626 217 m -1, 0 a 1,1 0 1,0 2,0 a 1,1 0 1,0 -2,0 M 626 217 m -0.5, 0 a 0.5,0.5 0 1,0 1,0 a 0.5,0.5 0 1,0 -1,0  M614 223 Q 577 223, 540 197.5 T 466 172 M 454 172 m -1, 0 a 1,1 0 1,0 2,0 a 1,1 0 1,0 -2,0 M 454 172 m -0.5, 0 a 0.5,0.5 0 1,0 1,0 a 0.5,0.5 0 1,0 -1,0  M454 172 L454 172 466 172 M460 178 L460 178 460 166" id="h3000826536" class="r"></path></g><g class="hrs"></g><g class="ts"><svg width="187" height="100" x="74" y="380" id="h475896179" class="t"><rect height="40" width="187" class="th"></rect><text x="13" y="25" class="tht">departments</text><rect height="60" width="187" class="t-bg" y="40"></rect><text x="13" y="61" class="tf pk">dept_no<tspan x="174" class="ty">VARCHAR(4)</tspan></text><path d="M7,14A2,2 0 0,1 5,12A2,2 0 0,1 7,10A2,2 0 0,1 9,12A2,2 0 0,1 7,14M12.65,10C11.83,7.67 9.61,6 7, 6A6, 6 0 0, 0 1, 12A6, 6 0 0, 0 7, 18C9.61, 18 11.83, 16.33 12.65, 14H17V18H21V14H23V10H12.65Z" class="i pk" transform="translate(83, 48) scale(0.65)"></path><text x="13" y="86" class="tf">dept_name<tspan x="174" class="ty">VARCHAR(30)</tspan></text></svg><svg width="162" height="150" x="20" y="115" id="h1090417462" class="t"><rect height="40" width="162" class="th"></rect><text x="13" y="25" class="tht">dept_emp</text><rect height="110" width="162" class="t-bg" y="40"></rect><text x="13" y="61" class="tf fk">emp_no<tspan x="149" class="ty">INTEGER</tspan></text><text x="13" y="86" class="tf fk">dept_no<tspan x="149" class="ty">VARCHAR(4)</tspan></text><text x="13" y="111" class="tf">from_date<tspan x="149" class="ty">DATE</tspan></text><text x="13" y="136" class="tf">to_date<tspan x="149" class="ty">DATE</tspan></text></svg><svg width="162" height="150" x="361" y="381" id="h1676682957" class="t"><rect height="40" width="162" class="th"></rect><text x="13" y="25" class="tht">dept_manager</text><rect height="110" width="162" class="t-bg" y="40"></rect><text x="13" y="61" class="tf fk">emp_no<tspan x="149" class="ty">INTEGER</tspan></text><text x="13" y="86" class="tf fk">dept_no<tspan x="149" class="ty">VARCHAR(4)</tspan></text><text x="13" y="111" class="tf">from_date<tspan x="149" class="ty">DATE</tspan></text><text x="13" y="136" class="tf">to_date<tspan x="149" class="ty">DATE</tspan></text></svg><svg width="183" height="200" x="271" y="115" id="h1639608377" class="t"><rect height="40" width="183" class="th"></rect><text x="13" y="25" class="tht">employees</text><rect height="160" width="183" class="t-bg" y="40"></rect><text x="13" y="61" class="tf pk">emp_no<tspan x="170" class="ty">SERIAL</tspan></text><path d="M7,14A2,2 0 0,1 5,12A2,2 0 0,1 7,10A2,2 0 0,1 9,12A2,2 0 0,1 7,14M12.65,10C11.83,7.67 9.61,6 7, 6A6, 6 0 0, 0 1, 12A6, 6 0 0, 0 7, 18C9.61, 18 11.83, 16.33 12.65, 14H17V18H21V14H23V10H12.65Z" class="i pk" transform="translate(108, 48) scale(0.65)"></path><text x="13" y="86" class="tf">birth_date<tspan x="170" class="ty">DATE</tspan></text><text x="13" y="111" class="tf">first_name<tspan x="170" class="ty">VARCHAR(30)</tspan></text><text x="13" y="136" class="tf">last_name<tspan x="170" class="ty">VARCHAR(30)</tspan></text><text x="13" y="161" class="tf">gender<tspan x="170" class="ty">VARCHAR(1)</tspan></text><text x="13" y="186" class="tf">hire_date<tspan x="170" class="ty">DATE</tspan></text></svg><svg width="145" height="150" x="627" y="3" id="h2472833127" class="t"><rect height="40" width="145" class="th"></rect><text x="13" y="25" class="tht">salaries</text><rect height="110" width="145" class="t-bg" y="40"></rect><text x="13" y="61" class="tf fk">emp_no<tspan x="132" class="ty">INTEGER</tspan></text><text x="13" y="86" class="tf">salary<tspan x="132" class="ty">INTEGER</tspan></text><text x="13" y="111" class="tf">from_date<tspan x="132" class="ty">DATE</tspan></text><text x="13" y="136" class="tf">to_date<tspan x="132" class="ty">DATE</tspan></text></svg><svg width="145" height="150" x="626" y="166" id="h311790747" class="t"><rect height="40" width="145" class="th"></rect><text x="13" y="25" class="tht">titles</text><rect height="110" width="145" class="t-bg" y="40"></rect><text x="13" y="61" class="tf fk">emp_no<tspan x="132" class="ty">INTEGER</tspan></text><text x="13" y="86" class="tf">title<tspan x="132" class="ty">VARCHAR(25)</tspan></text><text x="13" y="111" class="tf">from_date<tspan x="132" class="ty">DATE</tspan></text><text x="13" y="136" class="tf">to_date<tspan x="132" class="ty">DATE</tspan></text></svg></g></g><text class="qdbd-link" x="10" y="20">www.quickdatabasediagrams.com</text></svg>